<?xml version="1.0" encoding="UTF-8"?>
<mxfile host="app.diagrams.net" modified="2021-08-22T22:46:57.746Z" agent="5.0 (Windows NT 10.0; Win64; x64) AppleWebKit/537.36 (KHTML, like Gecko) Chrome/92.0.4515.159 Safari/537.36" version="14.9.2" etag="niugPgNntNS65QPYZGX_" type="google">
  <diagram id="8HKQMW4QgMC1dH3ctxk9" name="Page-1">
    <mxGraphModel dx="868" dy="450" grid="1" gridSize="10" guides="1" tooltips="1" connect="1" arrows="1" fold="1" page="1" pageScale="1" pageWidth="827" pageHeight="1169" math="0" shadow="0">
      <root>
        <mxCell id="0" />
        <mxCell id="1" parent="0" />
        <mxCell id="dZDrsQ1NZqcXXCW0UbdY-1" value="Visitante da pÃ¡gina&lt;br&gt;" style="shape=umlActor;verticalLabelPosition=bottom;verticalAlign=top;html=1;outlineConnect=0;" parent="1" vertex="1">
          <mxGeometry x="100" y="260" width="30" height="60" as="geometry" />
        </mxCell>
        <mxCell id="dZDrsQ1NZqcXXCW0UbdY-2" value="Pesquisar por Produto&lt;br&gt;" style="ellipse;whiteSpace=wrap;html=1;fillColor=#d5e8d4;strokeColor=#82b366;fontColor=#000000;" parent="1" vertex="1">
          <mxGeometry x="200" y="150" width="120" height="80" as="geometry" />
        </mxCell>
        <mxCell id="dZDrsQ1NZqcXXCW0UbdY-7" value="" style="endArrow=none;html=1;exitX=1;exitY=0.3333333333333333;exitDx=0;exitDy=0;exitPerimeter=0;entryX=0;entryY=0.5;entryDx=0;entryDy=0;" parent="1" source="dZDrsQ1NZqcXXCW0UbdY-1" target="dZDrsQ1NZqcXXCW0UbdY-2" edge="1">
          <mxGeometry width="50" height="50" relative="1" as="geometry">
            <mxPoint x="500" y="560" as="sourcePoint" />
            <mxPoint x="550" y="510" as="targetPoint" />
          </mxGeometry>
        </mxCell>
        <mxCell id="H3AiWUCp9q5OC1NPsXTo-7" style="rounded=0;orthogonalLoop=1;jettySize=auto;html=1;entryX=1;entryY=0.5;entryDx=0;entryDy=0;dashed=1;" parent="1" source="dZDrsQ1NZqcXXCW0UbdY-16" target="H3AiWUCp9q5OC1NPsXTo-6" edge="1">
          <mxGeometry relative="1" as="geometry" />
        </mxCell>
        <mxCell id="dZDrsQ1NZqcXXCW0UbdY-16" value="Atualizar dados da conta" style="ellipse;whiteSpace=wrap;html=1;" parent="1" vertex="1">
          <mxGeometry x="450" y="370" width="120" height="80" as="geometry" />
        </mxCell>
        <mxCell id="hDfRb7Fc2wK_hWg_4QYN-16" style="rounded=0;orthogonalLoop=1;jettySize=auto;html=1;dashed=1;" parent="1" source="hDfRb7Fc2wK_hWg_4QYN-1" edge="1">
          <mxGeometry relative="1" as="geometry">
            <mxPoint x="520" y="190" as="targetPoint" />
          </mxGeometry>
        </mxCell>
        <mxCell id="hDfRb7Fc2wK_hWg_4QYN-38" value="&amp;lt;&amp;lt;extend&amp;gt;&amp;gt;" style="edgeLabel;html=1;align=center;verticalAlign=middle;resizable=0;points=[];" parent="hDfRb7Fc2wK_hWg_4QYN-16" vertex="1" connectable="0">
          <mxGeometry x="-0.4352" y="4" relative="1" as="geometry">
            <mxPoint as="offset" />
          </mxGeometry>
        </mxCell>
        <mxCell id="hDfRb7Fc2wK_hWg_4QYN-1" value="Visualizar Loja" style="ellipse;whiteSpace=wrap;html=1;" parent="1" vertex="1">
          <mxGeometry x="580" y="50" width="120" height="80" as="geometry" />
        </mxCell>
        <mxCell id="hDfRb7Fc2wK_hWg_4QYN-15" style="edgeStyle=orthogonalEdgeStyle;rounded=0;orthogonalLoop=1;jettySize=auto;html=1;entryX=1;entryY=0.5;entryDx=0;entryDy=0;dashed=1;" parent="1" source="hDfRb7Fc2wK_hWg_4QYN-4" target="dZDrsQ1NZqcXXCW0UbdY-2" edge="1">
          <mxGeometry relative="1" as="geometry">
            <mxPoint x="360" y="190" as="targetPoint" />
          </mxGeometry>
        </mxCell>
        <mxCell id="hDfRb7Fc2wK_hWg_4QYN-39" value="&amp;lt;&amp;lt;extend&amp;gt;&amp;gt;" style="edgeLabel;html=1;align=center;verticalAlign=middle;resizable=0;points=[];" parent="hDfRb7Fc2wK_hWg_4QYN-15" vertex="1" connectable="0">
          <mxGeometry x="0.25" y="-4" relative="1" as="geometry">
            <mxPoint x="10" y="-6" as="offset" />
          </mxGeometry>
        </mxCell>
        <mxCell id="hDfRb7Fc2wK_hWg_4QYN-4" value="Visualizar detalhes do produto" style="ellipse;whiteSpace=wrap;html=1;" parent="1" vertex="1">
          <mxGeometry x="400" y="150" width="120" height="80" as="geometry" />
        </mxCell>
        <mxCell id="hDfRb7Fc2wK_hWg_4QYN-17" style="edgeStyle=none;rounded=0;orthogonalLoop=1;jettySize=auto;html=1;entryX=1;entryY=0.5;entryDx=0;entryDy=0;dashed=1;" parent="1" source="hDfRb7Fc2wK_hWg_4QYN-5" target="hDfRb7Fc2wK_hWg_4QYN-4" edge="1">
          <mxGeometry relative="1" as="geometry" />
        </mxCell>
        <mxCell id="hDfRb7Fc2wK_hWg_4QYN-37" value="&amp;lt;&amp;lt;extend&amp;gt;&amp;gt;" style="edgeLabel;html=1;align=center;verticalAlign=middle;resizable=0;points=[];" parent="hDfRb7Fc2wK_hWg_4QYN-17" vertex="1" connectable="0">
          <mxGeometry x="-0.1875" y="1" relative="1" as="geometry">
            <mxPoint as="offset" />
          </mxGeometry>
        </mxCell>
        <mxCell id="hDfRb7Fc2wK_hWg_4QYN-5" value="Adicionar Produto ao carrinho&lt;br&gt;" style="ellipse;whiteSpace=wrap;html=1;" parent="1" vertex="1">
          <mxGeometry x="580" y="260" width="120" height="80" as="geometry" />
        </mxCell>
        <mxCell id="hDfRb7Fc2wK_hWg_4QYN-27" style="edgeStyle=none;rounded=0;orthogonalLoop=1;jettySize=auto;html=1;dashed=1;endArrow=block;endFill=0;" parent="1" source="hDfRb7Fc2wK_hWg_4QYN-26" edge="1">
          <mxGeometry relative="1" as="geometry">
            <mxPoint x="115" y="310" as="targetPoint" />
          </mxGeometry>
        </mxCell>
        <mxCell id="hDfRb7Fc2wK_hWg_4QYN-26" value="Cliente" style="shape=umlActor;verticalLabelPosition=bottom;verticalAlign=top;html=1;outlineConnect=0;" parent="1" vertex="1">
          <mxGeometry x="100" y="440" width="30" height="60" as="geometry" />
        </mxCell>
        <mxCell id="hDfRb7Fc2wK_hWg_4QYN-28" value="" style="endArrow=none;html=1;exitX=1;exitY=0.3333333333333333;exitDx=0;exitDy=0;exitPerimeter=0;entryX=0;entryY=0.5;entryDx=0;entryDy=0;" parent="1" source="hDfRb7Fc2wK_hWg_4QYN-26" target="H3AiWUCp9q5OC1NPsXTo-6" edge="1">
          <mxGeometry width="50" height="50" relative="1" as="geometry">
            <mxPoint x="190" y="440" as="sourcePoint" />
            <mxPoint x="260" y="350" as="targetPoint" />
          </mxGeometry>
        </mxCell>
        <mxCell id="hDfRb7Fc2wK_hWg_4QYN-29" value="Visualizar Carrinho" style="ellipse;whiteSpace=wrap;html=1;fillColor=#d5e8d4;strokeColor=#82b366;fontColor=#000000;" parent="1" vertex="1">
          <mxGeometry x="200" y="240" width="120" height="80" as="geometry" />
        </mxCell>
        <mxCell id="hDfRb7Fc2wK_hWg_4QYN-30" value="" style="endArrow=none;html=1;entryX=0;entryY=0.5;entryDx=0;entryDy=0;" parent="1" target="hDfRb7Fc2wK_hWg_4QYN-29" edge="1">
          <mxGeometry width="50" height="50" relative="1" as="geometry">
            <mxPoint x="130" y="280" as="sourcePoint" />
            <mxPoint x="210" y="200" as="targetPoint" />
          </mxGeometry>
        </mxCell>
        <mxCell id="hDfRb7Fc2wK_hWg_4QYN-31" value="Visualizar Carrinho" style="ellipse;whiteSpace=wrap;html=1;fillColor=#d5e8d4;strokeColor=#82b366;fontColor=#000000;" parent="1" vertex="1">
          <mxGeometry x="180" y="620" width="120" height="80" as="geometry" />
        </mxCell>
        <mxCell id="hDfRb7Fc2wK_hWg_4QYN-32" value="" style="endArrow=none;html=1;exitX=1;exitY=0.3333333333333333;exitDx=0;exitDy=0;exitPerimeter=0;entryX=0;entryY=0.5;entryDx=0;entryDy=0;" parent="1" source="hDfRb7Fc2wK_hWg_4QYN-26" target="hDfRb7Fc2wK_hWg_4QYN-31" edge="1">
          <mxGeometry width="50" height="50" relative="1" as="geometry">
            <mxPoint x="140" y="470" as="sourcePoint" />
            <mxPoint x="210" y="400" as="targetPoint" />
          </mxGeometry>
        </mxCell>
        <mxCell id="hDfRb7Fc2wK_hWg_4QYN-42" style="edgeStyle=none;rounded=0;orthogonalLoop=1;jettySize=auto;html=1;entryX=1;entryY=0.5;entryDx=0;entryDy=0;dashed=1;endArrow=block;endFill=1;" parent="1" source="hDfRb7Fc2wK_hWg_4QYN-33" target="hDfRb7Fc2wK_hWg_4QYN-31" edge="1">
          <mxGeometry relative="1" as="geometry" />
        </mxCell>
        <mxCell id="hDfRb7Fc2wK_hWg_4QYN-44" value="&lt;span style=&quot;color: rgba(0 , 0 , 0 , 0) ; font-family: monospace ; font-size: 0px ; background-color: rgb(248 , 249 , 250)&quot;&gt;%3CmxGraphModel%3E%3Croot%3E%3CmxCell%20id%3D%220%22%2F%3E%3CmxCell%20id%3D%221%22%20parent%3D%220%22%2F%3E%3CmxCell%20id%3D%222%22%20style%3D%22edgeStyle%3Dnone%3Brounded%3D0%3BorthogonalLoop%3D1%3BjettySize%3Dauto%3Bhtml%3D1%3BentryX%3D0.5%3BentryY%3D0%3BentryDx%3D0%3BentryDy%3D0%3Bdashed%3D1%3B%22%20edge%3D%221%22%20parent%3D%221%22%3E%3CmxGeometry%20relative%3D%221%22%20as%3D%22geometry%22%3E%3CmxPoint%20x%3D%22640%22%20y%3D%22130%22%20as%3D%22sourcePoint%22%2F%3E%3CmxPoint%20x%3D%22640%22%20y%3D%22290%22%20as%3D%22targetPoint%22%2F%3E%3C%2FmxGeometry%3E%3C%2FmxCell%3E%3CmxCell%20id%3D%223%22%20value%3D%22%26amp%3Blt%3B%26amp%3Blt%3Bextend%26amp%3Bgt%3B%26amp%3Bgt%3B%22%20style%3D%22edgeLabel%3Bhtml%3D1%3Balign%3Dcenter%3BverticalAlign%3Dmiddle%3Bresizable%3D0%3Bpoints%3D%5B%5D%3B%22%20vertex%3D%221%22%20connectable%3D%220%22%20parent%3D%222%22%3E%3CmxGeometry%20x%3D%220.125%22%20relative%3D%221%22%20as%3D%22geometry%22%3E%3CmxPoint%20as%3D%22offset%22%2F%3E%3C%2FmxGeometry%3E%3C%2FmxCell%3E%3C%2Froot%3E%3C%2FmxGraphModel%3E&lt;/span&gt;&lt;span style=&quot;color: rgba(0 , 0 , 0 , 0) ; font-family: monospace ; font-size: 0px ; background-color: rgb(248 , 249 , 250)&quot;&gt;%3CmxGraphModel%3E%3Croot%3E%3CmxCell%20id%3D%220%22%2F%3E%3CmxCell%20id%3D%221%22%20parent%3D%220%22%2F%3E%3CmxCell%20id%3D%222%22%20style%3D%22edgeStyle%3Dnone%3Brounded%3D0%3BorthogonalLoop%3D1%3BjettySize%3Dauto%3Bhtml%3D1%3BentryX%3D0.5%3BentryY%3D0%3BentryDx%3D0%3BentryDy%3D0%3Bdashed%3D1%3B%22%20edge%3D%221%22%20parent%3D%221%22%3E%3CmxGeometry%20relative%3D%221%22%20as%3D%22geometry%22%3E%3CmxPoint%20x%3D%22640%22%20y%3D%22130%22%20as%3D%22sourcePoint%22%2F%3E%3CmxPoint%20x%3D%22640%22%20y%3D%22290%22%20as%3D%22targetPoint%22%2F%3E%3C%2FmxGeometry%3E%3C%2FmxCell%3E%3CmxCell%20id%3D%223%22%20value%3D%22%26amp%3Blt%3B%26amp%3Blt%3Bextend%26amp%3Bgt%3B%26amp%3Bgt%3B%22%20style%3D%22edgeLabel%3Bhtml%3D1%3Balign%3Dcenter%3BverticalAlign%3Dmiddle%3Bresizable%3D0%3Bpoints%3D%5B%5D%3B%22%20vertex%3D%221%22%20connectable%3D%220%22%20parent%3D%222%22%3E%3CmxGeometry%20x%3D%220.125%22%20relative%3D%221%22%20as%3D%22geometry%22%3E%3CmxPoint%20as%3D%22offset%22%2F%3E%3C%2FmxGeometry%3E%3C%2FmxCell%3E%3C%2Froot%3E%3C%2FmxGraphModel%3E&lt;/span&gt;" style="edgeLabel;html=1;align=center;verticalAlign=middle;resizable=0;points=[];" parent="hDfRb7Fc2wK_hWg_4QYN-42" vertex="1" connectable="0">
          <mxGeometry x="-0.275" y="1" relative="1" as="geometry">
            <mxPoint as="offset" />
          </mxGeometry>
        </mxCell>
        <mxCell id="hDfRb7Fc2wK_hWg_4QYN-46" value="&amp;lt;&amp;lt;extend&amp;gt;&amp;gt;" style="edgeLabel;html=1;align=center;verticalAlign=middle;resizable=0;points=[];" parent="hDfRb7Fc2wK_hWg_4QYN-42" vertex="1" connectable="0">
          <mxGeometry x="-0.35" relative="1" as="geometry">
            <mxPoint x="-14" y="-10" as="offset" />
          </mxGeometry>
        </mxCell>
        <mxCell id="hDfRb7Fc2wK_hWg_4QYN-33" value="Fechar pedido" style="ellipse;whiteSpace=wrap;html=1;" parent="1" vertex="1">
          <mxGeometry x="390" y="620" width="120" height="80" as="geometry" />
        </mxCell>
        <mxCell id="hDfRb7Fc2wK_hWg_4QYN-47" value="Lojista" style="shape=umlActor;verticalLabelPosition=bottom;verticalAlign=top;html=1;outlineConnect=0;" parent="1" vertex="1">
          <mxGeometry x="90" y="925" width="30" height="60" as="geometry" />
        </mxCell>
        <mxCell id="hDfRb7Fc2wK_hWg_4QYN-48" value="Gerenciar Loja" style="ellipse;whiteSpace=wrap;html=1;" parent="1" vertex="1">
          <mxGeometry x="390" y="870" width="120" height="80" as="geometry" />
        </mxCell>
        <mxCell id="hDfRb7Fc2wK_hWg_4QYN-59" style="edgeStyle=none;rounded=0;orthogonalLoop=1;jettySize=auto;html=1;entryX=1;entryY=0.5;entryDx=0;entryDy=0;dashed=1;endArrow=block;endFill=1;" parent="1" target="H3AiWUCp9q5OC1NPsXTo-13" edge="1">
          <mxGeometry relative="1" as="geometry">
            <mxPoint x="457.884396861685" y="916.5100331711399" as="sourcePoint" />
          </mxGeometry>
        </mxCell>
        <mxCell id="hDfRb7Fc2wK_hWg_4QYN-58" style="edgeStyle=none;rounded=0;orthogonalLoop=1;jettySize=auto;html=1;endArrow=block;endFill=1;dashed=1;entryX=1;entryY=0.5;entryDx=0;entryDy=0;" parent="1" source="hDfRb7Fc2wK_hWg_4QYN-50" edge="1">
          <mxGeometry relative="1" as="geometry">
            <mxPoint x="330" y="830" as="targetPoint" />
          </mxGeometry>
        </mxCell>
        <mxCell id="hDfRb7Fc2wK_hWg_4QYN-85" style="edgeStyle=none;rounded=0;orthogonalLoop=1;jettySize=auto;html=1;entryX=1;entryY=0.5;entryDx=0;entryDy=0;dashed=1;endArrow=block;endFill=1;" parent="1" source="hDfRb7Fc2wK_hWg_4QYN-53" target="hDfRb7Fc2wK_hWg_4QYN-83" edge="1">
          <mxGeometry relative="1" as="geometry" />
        </mxCell>
        <mxCell id="hDfRb7Fc2wK_hWg_4QYN-53" value="Cadastrar Produto" style="ellipse;whiteSpace=wrap;html=1;" parent="1" vertex="1">
          <mxGeometry x="630" y="1010" width="120" height="80" as="geometry" />
        </mxCell>
        <mxCell id="hDfRb7Fc2wK_hWg_4QYN-62" style="edgeStyle=none;rounded=0;orthogonalLoop=1;jettySize=auto;html=1;dashed=1;endArrow=block;endFill=1;entryX=1;entryY=0.5;entryDx=0;entryDy=0;" parent="1" source="hDfRb7Fc2wK_hWg_4QYN-54" target="hDfRb7Fc2wK_hWg_4QYN-83" edge="1">
          <mxGeometry relative="1" as="geometry">
            <mxPoint x="740" y="1200" as="targetPoint" />
          </mxGeometry>
        </mxCell>
        <mxCell id="hDfRb7Fc2wK_hWg_4QYN-54" value="Atualizar dados do produto" style="ellipse;whiteSpace=wrap;html=1;" parent="1" vertex="1">
          <mxGeometry x="620" y="1140" width="120" height="80" as="geometry" />
        </mxCell>
        <mxCell id="hDfRb7Fc2wK_hWg_4QYN-56" value="" style="endArrow=none;html=1;exitX=1;exitY=0.3333333333333333;exitDx=0;exitDy=0;exitPerimeter=0;entryX=0;entryY=0.5;entryDx=0;entryDy=0;" parent="1" source="hDfRb7Fc2wK_hWg_4QYN-47" target="hDfRb7Fc2wK_hWg_4QYN-48" edge="1">
          <mxGeometry width="50" height="50" relative="1" as="geometry">
            <mxPoint x="380" y="975" as="sourcePoint" />
            <mxPoint x="430" y="925" as="targetPoint" />
          </mxGeometry>
        </mxCell>
        <mxCell id="hDfRb7Fc2wK_hWg_4QYN-63" value="Visualizar Pedidos" style="ellipse;whiteSpace=wrap;html=1;fillColor=#d5e8d4;strokeColor=#82b366;fontColor=#000000;" parent="1" vertex="1">
          <mxGeometry x="230" y="1220" width="120" height="80" as="geometry" />
        </mxCell>
        <mxCell id="hDfRb7Fc2wK_hWg_4QYN-69" style="edgeStyle=none;rounded=0;orthogonalLoop=1;jettySize=auto;html=1;entryX=1;entryY=0.5;entryDx=0;entryDy=0;dashed=1;endArrow=block;endFill=1;" parent="1" source="hDfRb7Fc2wK_hWg_4QYN-64" target="hDfRb7Fc2wK_hWg_4QYN-63" edge="1">
          <mxGeometry relative="1" as="geometry" />
        </mxCell>
        <mxCell id="hDfRb7Fc2wK_hWg_4QYN-64" value="Detalhar pedidos" style="ellipse;whiteSpace=wrap;html=1;" parent="1" vertex="1">
          <mxGeometry x="420" y="1225" width="120" height="80" as="geometry" />
        </mxCell>
        <mxCell id="hDfRb7Fc2wK_hWg_4QYN-70" style="edgeStyle=none;rounded=0;orthogonalLoop=1;jettySize=auto;html=1;dashed=1;endArrow=block;endFill=1;entryX=1;entryY=0.5;entryDx=0;entryDy=0;" parent="1" source="hDfRb7Fc2wK_hWg_4QYN-65" target="hDfRb7Fc2wK_hWg_4QYN-64" edge="1">
          <mxGeometry relative="1" as="geometry">
            <mxPoint x="511" y="1295" as="targetPoint" />
          </mxGeometry>
        </mxCell>
        <mxCell id="hDfRb7Fc2wK_hWg_4QYN-65" value="Aceitar Pedido" style="ellipse;whiteSpace=wrap;html=1;" parent="1" vertex="1">
          <mxGeometry x="620" y="1225" width="120" height="80" as="geometry" />
        </mxCell>
        <mxCell id="hDfRb7Fc2wK_hWg_4QYN-71" style="edgeStyle=none;rounded=0;orthogonalLoop=1;jettySize=auto;html=1;entryX=1;entryY=0.5;entryDx=0;entryDy=0;dashed=1;endArrow=block;endFill=1;" parent="1" source="hDfRb7Fc2wK_hWg_4QYN-67" target="hDfRb7Fc2wK_hWg_4QYN-64" edge="1">
          <mxGeometry relative="1" as="geometry" />
        </mxCell>
        <mxCell id="hDfRb7Fc2wK_hWg_4QYN-67" value="Negar pedido" style="ellipse;whiteSpace=wrap;html=1;" parent="1" vertex="1">
          <mxGeometry x="630" y="1315" width="120" height="80" as="geometry" />
        </mxCell>
        <mxCell id="hDfRb7Fc2wK_hWg_4QYN-72" style="edgeStyle=none;rounded=0;orthogonalLoop=1;jettySize=auto;html=1;entryX=1;entryY=0.5;entryDx=0;entryDy=0;dashed=1;endArrow=block;endFill=1;" parent="1" source="hDfRb7Fc2wK_hWg_4QYN-68" target="hDfRb7Fc2wK_hWg_4QYN-83" edge="1">
          <mxGeometry relative="1" as="geometry" />
        </mxCell>
        <mxCell id="hDfRb7Fc2wK_hWg_4QYN-68" value="Exlcuir produto" style="ellipse;whiteSpace=wrap;html=1;" parent="1" vertex="1">
          <mxGeometry x="840" y="1070" width="120" height="80" as="geometry" />
        </mxCell>
        <mxCell id="hDfRb7Fc2wK_hWg_4QYN-73" value="" style="endArrow=none;html=1;entryX=0;entryY=0.5;entryDx=0;entryDy=0;" parent="1" target="hDfRb7Fc2wK_hWg_4QYN-63" edge="1">
          <mxGeometry width="50" height="50" relative="1" as="geometry">
            <mxPoint x="120" y="945" as="sourcePoint" />
            <mxPoint x="190" y="1235" as="targetPoint" />
          </mxGeometry>
        </mxCell>
        <mxCell id="hDfRb7Fc2wK_hWg_4QYN-78" value="&amp;lt;&amp;lt;extend&amp;gt;&amp;gt;" style="edgeLabel;html=1;align=center;verticalAlign=middle;resizable=0;points=[];" parent="1" vertex="1" connectable="0">
          <mxGeometry x="414" y="1080" as="geometry">
            <mxPoint x="159" y="-11" as="offset" />
          </mxGeometry>
        </mxCell>
        <mxCell id="hDfRb7Fc2wK_hWg_4QYN-79" value="&amp;lt;&amp;lt;extend&amp;gt;&amp;gt;" style="edgeLabel;html=1;align=center;verticalAlign=middle;resizable=0;points=[];" parent="1" vertex="1" connectable="0">
          <mxGeometry x="620" y="1110" as="geometry">
            <mxPoint x="159" y="-11" as="offset" />
          </mxGeometry>
        </mxCell>
        <mxCell id="hDfRb7Fc2wK_hWg_4QYN-80" value="&amp;lt;&amp;lt;extend&amp;gt;&amp;gt;" style="edgeLabel;html=1;align=center;verticalAlign=middle;resizable=0;points=[];" parent="1" vertex="1" connectable="0">
          <mxGeometry x="430" y="1265" as="geometry">
            <mxPoint x="159" y="-11" as="offset" />
          </mxGeometry>
        </mxCell>
        <mxCell id="hDfRb7Fc2wK_hWg_4QYN-81" value="&amp;lt;&amp;lt;extend&amp;gt;&amp;gt;" style="edgeLabel;html=1;align=center;verticalAlign=middle;resizable=0;points=[];" parent="1" vertex="1" connectable="0">
          <mxGeometry x="430" y="1320" as="geometry">
            <mxPoint x="159" y="-11" as="offset" />
          </mxGeometry>
        </mxCell>
        <mxCell id="hDfRb7Fc2wK_hWg_4QYN-82" value="&amp;lt;&amp;lt;extend&amp;gt;&amp;gt;" style="edgeLabel;html=1;align=center;verticalAlign=middle;resizable=0;points=[];" parent="1" vertex="1" connectable="0">
          <mxGeometry x="230" y="1260" as="geometry">
            <mxPoint x="159" y="-11" as="offset" />
          </mxGeometry>
        </mxCell>
        <mxCell id="hDfRb7Fc2wK_hWg_4QYN-83" value="Visualizar Produtos" style="ellipse;whiteSpace=wrap;html=1;fillColor=#d5e8d4;strokeColor=#82b366;fontColor=#000000;" parent="1" vertex="1">
          <mxGeometry x="390" y="1070" width="120" height="80" as="geometry" />
        </mxCell>
        <mxCell id="hDfRb7Fc2wK_hWg_4QYN-86" value="&amp;lt;&amp;lt;extend&amp;gt;&amp;gt;" style="edgeLabel;html=1;align=center;verticalAlign=middle;resizable=0;points=[];" parent="1" vertex="1" connectable="0">
          <mxGeometry x="430" y="1140" as="geometry">
            <mxPoint x="159" y="-11" as="offset" />
          </mxGeometry>
        </mxCell>
        <mxCell id="hDfRb7Fc2wK_hWg_4QYN-88" style="edgeStyle=none;rounded=0;orthogonalLoop=1;jettySize=auto;html=1;entryX=1;entryY=0.5;entryDx=0;entryDy=0;dashed=1;endArrow=block;endFill=1;" parent="1" source="hDfRb7Fc2wK_hWg_4QYN-87" target="H3AiWUCp9q5OC1NPsXTo-6" edge="1">
          <mxGeometry relative="1" as="geometry" />
        </mxCell>
        <mxCell id="hDfRb7Fc2wK_hWg_4QYN-87" value="Excluir Conta" style="ellipse;whiteSpace=wrap;html=1;" parent="1" vertex="1">
          <mxGeometry x="390" y="490" width="120" height="80" as="geometry" />
        </mxCell>
        <mxCell id="hDfRb7Fc2wK_hWg_4QYN-90" value="&amp;lt;&amp;lt;extend&amp;gt;&amp;gt;" style="edgeLabel;html=1;align=center;verticalAlign=middle;resizable=0;points=[];" parent="1" vertex="1" connectable="0">
          <mxGeometry x="350" y="460" as="geometry" />
        </mxCell>
        <mxCell id="H3AiWUCp9q5OC1NPsXTo-1" value="&lt;font color=&quot;#000000&quot;&gt;Pesquisar por Loja&lt;/font&gt;" style="ellipse;whiteSpace=wrap;html=1;fillColor=#d5e8d4;strokeColor=#82b366;" parent="1" vertex="1">
          <mxGeometry x="200" y="50" width="120" height="80" as="geometry" />
        </mxCell>
        <mxCell id="H3AiWUCp9q5OC1NPsXTo-2" value="" style="endArrow=none;html=1;exitX=1;exitY=0.3333333333333333;exitDx=0;exitDy=0;exitPerimeter=0;entryX=0;entryY=0.5;entryDx=0;entryDy=0;" parent="1" source="dZDrsQ1NZqcXXCW0UbdY-1" target="H3AiWUCp9q5OC1NPsXTo-1" edge="1">
          <mxGeometry width="50" height="50" relative="1" as="geometry">
            <mxPoint x="120" y="240" as="sourcePoint" />
            <mxPoint x="190" y="150" as="targetPoint" />
          </mxGeometry>
        </mxCell>
        <mxCell id="H3AiWUCp9q5OC1NPsXTo-4" style="rounded=0;orthogonalLoop=1;jettySize=auto;html=1;dashed=1;entryX=1;entryY=0.5;entryDx=0;entryDy=0;exitX=0;exitY=0.5;exitDx=0;exitDy=0;" parent="1" source="hDfRb7Fc2wK_hWg_4QYN-1" target="H3AiWUCp9q5OC1NPsXTo-1" edge="1">
          <mxGeometry relative="1" as="geometry">
            <mxPoint x="437.48" y="130" as="targetPoint" />
            <mxPoint x="519.9982971467346" y="61.234752377721406" as="sourcePoint" />
          </mxGeometry>
        </mxCell>
        <mxCell id="H3AiWUCp9q5OC1NPsXTo-5" value="&amp;lt;&amp;lt;extend&amp;gt;&amp;gt;" style="edgeLabel;html=1;align=center;verticalAlign=middle;resizable=0;points=[];" parent="H3AiWUCp9q5OC1NPsXTo-4" vertex="1" connectable="0">
          <mxGeometry x="-0.4352" y="4" relative="1" as="geometry">
            <mxPoint as="offset" />
          </mxGeometry>
        </mxCell>
        <mxCell id="H3AiWUCp9q5OC1NPsXTo-6" value="Acessar Perfil" style="ellipse;whiteSpace=wrap;html=1;" parent="1" vertex="1">
          <mxGeometry x="180" y="370" width="120" height="80" as="geometry" />
        </mxCell>
        <mxCell id="H3AiWUCp9q5OC1NPsXTo-8" value="&amp;lt;&amp;lt;extend&amp;gt;&amp;gt;" style="edgeLabel;html=1;align=center;verticalAlign=middle;resizable=0;points=[];" parent="1" vertex="1" connectable="0">
          <mxGeometry x="450" y="380" as="geometry">
            <mxPoint x="-98" y="2" as="offset" />
          </mxGeometry>
        </mxCell>
        <mxCell id="H3AiWUCp9q5OC1NPsXTo-9" style="edgeStyle=none;rounded=0;orthogonalLoop=1;jettySize=auto;html=1;entryX=1;entryY=0.5;entryDx=0;entryDy=0;dashed=1;endArrow=block;endFill=1;exitX=0;exitY=0.5;exitDx=0;exitDy=0;" parent="1" source="H3AiWUCp9q5OC1NPsXTo-11" target="hDfRb7Fc2wK_hWg_4QYN-33" edge="1">
          <mxGeometry relative="1" as="geometry">
            <mxPoint x="751.5889360201311" y="729.2711488161049" as="sourcePoint" />
            <mxPoint x="640" y="640" as="targetPoint" />
          </mxGeometry>
        </mxCell>
        <mxCell id="H3AiWUCp9q5OC1NPsXTo-10" value="&amp;lt;&amp;lt;extend&amp;gt;&amp;gt;" style="edgeLabel;html=1;align=center;verticalAlign=middle;resizable=0;points=[];" parent="1" vertex="1" connectable="0">
          <mxGeometry x="690" y="690" as="geometry" />
        </mxCell>
        <mxCell id="H3AiWUCp9q5OC1NPsXTo-11" value="Acompanhar Pedido" style="ellipse;whiteSpace=wrap;html=1;" parent="1" vertex="1">
          <mxGeometry x="620" y="620" width="120" height="80" as="geometry" />
        </mxCell>
        <mxCell id="H3AiWUCp9q5OC1NPsXTo-12" value="&amp;lt;&amp;lt;extend&amp;gt;&amp;gt;" style="edgeLabel;html=1;align=center;verticalAlign=middle;resizable=0;points=[];" parent="1" vertex="1" connectable="0">
          <mxGeometry x="570" y="650" as="geometry" />
        </mxCell>
        <mxCell id="H3AiWUCp9q5OC1NPsXTo-17" value="Visualizar HistÃ³rico de pedidos" style="ellipse;whiteSpace=wrap;html=1;" parent="1" vertex="1">
          <mxGeometry x="390" y="970" width="120" height="80" as="geometry" />
        </mxCell>
        <mxCell id="sdHnZftBWkPplySN9N5n-8" value="" style="endArrow=none;html=1;exitX=1;exitY=0.3333333333333333;exitDx=0;exitDy=0;exitPerimeter=0;entryX=0;entryY=0.375;entryDx=0;entryDy=0;entryPerimeter=0;" edge="1" parent="1" source="hDfRb7Fc2wK_hWg_4QYN-47" target="hDfRb7Fc2wK_hWg_4QYN-83">
          <mxGeometry width="50" height="50" relative="1" as="geometry">
            <mxPoint x="300" y="1120" as="sourcePoint" />
            <mxPoint x="390" y="1120" as="targetPoint" />
          </mxGeometry>
        </mxCell>
        <mxCell id="sdHnZftBWkPplySN9N5n-9" value="" style="endArrow=none;html=1;exitX=1;exitY=0.3333333333333333;exitDx=0;exitDy=0;exitPerimeter=0;entryX=-0.008;entryY=0.4;entryDx=0;entryDy=0;entryPerimeter=0;" edge="1" parent="1" source="hDfRb7Fc2wK_hWg_4QYN-47" target="H3AiWUCp9q5OC1NPsXTo-17">
          <mxGeometry width="50" height="50" relative="1" as="geometry">
            <mxPoint x="300" y="1040" as="sourcePoint" />
            <mxPoint x="390" y="1040" as="targetPoint" />
          </mxGeometry>
        </mxCell>
      </root>
    </mxGraphModel>
  </diagram>
</mxfile>
